<?xml version="1.0" encoding="utf-8"?>
<!-- Generator: Adobe Illustrator 24.1.3, SVG Export Plug-In . SVG Version: 6.00 Build 0)  -->
<svg version="1.1" id="Layer_1" xmlns="http://www.w3.org/2000/svg" xmlns:xlink="http://www.w3.org/1999/xlink" x="0px" y="0px"
	 viewBox="0 0 332.6 173.3" style="enable-background:new 0 0 332.6 173.3;" xml:space="preserve">
<style type="text/css">
	.st0{fill:#ED1F79;}
	.st1{fill:#1AB092;}
	.st2{fill-rule:evenodd;clip-rule:evenodd;fill:#ED1F79;}
	.st3{fill-rule:evenodd;clip-rule:evenodd;fill:#FFFFFF;}
	.st4{fill-rule:evenodd;clip-rule:evenodd;fill:#0E8F75;}
	.st5{fill-rule:evenodd;clip-rule:evenodd;fill:#1AB092;}
	.st6{fill-rule:evenodd;clip-rule:evenodd;fill:#D81C77;}
	.st7{fill-rule:evenodd;clip-rule:evenodd;fill:url(#SVGID_1_);}
</style>
<g>
	<g>
		<path class="st0" d="M58,53.1h5.2c1.1,0,1.5,0.5,1.3,1.6l-9.6,78.6c-2.9,23.6-16.3,34.9-40.2,33.9c-1,0-1.5-0.5-1.5-1.6l0.8-4.7
			c0.2-1.1,0.8-1.6,1.8-1.6c9.6,0.3,16.9-1.7,21.7-6.1c4.9-4.4,7.9-11.1,9.1-20.2l0.8-7.1c0-0.3-0.1-0.5-0.2-0.6
			c-0.2-0.1-0.3,0.1-0.4,0.4c-2.4,3.1-5.3,5.6-8.8,7.3c-3.5,1.7-7.2,2.6-11.3,2.6c-6.6,0-11.9-2.1-15.9-6.2c-4-4.1-6.1-9.7-6.2-16.7
			c0-4.6,0.5-10.9,1.6-18.8c1-8.6,2.1-15.1,3.2-19.3c1.6-6.8,4.9-12.3,9.8-16.5c4.9-4.2,10.7-6.3,17.4-6.3c4.2,0,7.8,0.9,10.9,2.6
			c3,1.7,5.4,4.2,7,7.3c0.1,0.3,0.2,0.5,0.4,0.4c0.2-0.1,0.3-0.2,0.4-0.6l0.8-6.8C56.4,53.6,57,53.1,58,53.1z M51.4,93.9
			c0.9-6.8,1.5-12.6,1.8-17.3c0.2-5-1.1-9.1-3.8-12.3c-2.8-3.2-6.6-4.9-11.6-4.9c-4.9,0-9.2,1.6-12.9,4.9c-3.7,3.2-6.2,7.4-7.5,12.3
			c-1.3,7.4-2.2,13.1-2.8,17.2c-1,8.1-1.5,13.9-1.5,17.5c0,5,1.5,9,4.5,12.1c3,3.1,6.9,4.6,11.9,4.6c4.9,0,9.1-1.6,12.6-4.8
			c3.6-3.2,5.8-7.3,6.8-12.2C49.6,107.6,50.4,101.9,51.4,93.9z"/>
		<path class="st0" d="M78.4,129.8c-4.2-4.2-6.3-9.8-6.3-16.9c-0.1-4.6,0.4-11,1.5-19c1-8.1,2.1-14.4,3.2-19
			c1.7-7,5.2-12.6,10.5-16.9c5.3-4.2,11.6-6.3,18.8-6.3c7.2,0,13,2.1,17.3,6.4c4.3,4.3,6.4,9.9,6.4,16.8c0,4.9-0.5,11.2-1.6,19
			c-1,8.5-2,14.9-3.1,19c-1.7,7-5.2,12.6-10.5,16.9c-5.3,4.2-11.6,6.3-18.8,6.3C88.4,136.1,82.7,134,78.4,129.8z M109.9,123.8
			c3.8-3.1,6.3-7.3,7.5-12.5c0.8-3.5,1.6-9.2,2.6-17.3c0.1-1.1,0.4-3.6,0.9-7.6c0.5-4,0.7-7.3,0.7-10.1c0-5.1-1.5-9.2-4.5-12.2
			c-3-3.1-6.9-4.6-11.9-4.6c-5.1,0-9.5,1.6-13.2,4.7c-3.7,3.1-6.2,7.3-7.4,12.5c-0.8,3.8-1.6,9.6-2.6,17.3c-0.1,1.1-0.4,3.6-0.9,7.6
			c-0.5,4-0.7,7.4-0.7,10.1c0,5.1,1.5,9.2,4.4,12.2c2.9,3.1,6.9,4.6,11.8,4.6C101.7,128.5,106.1,126.9,109.9,123.8z"/>
		<path class="st0" d="M193.2,53.1h5.2c1.1,0,1.5,0.5,1.3,1.6l-9.6,78.5c-0.2,1.1-0.8,1.6-1.8,1.6h-5.2c-1,0-1.5-0.5-1.5-1.6
			l1.1-8.3c0-0.3-0.1-0.5-0.2-0.5c-0.2,0-0.4,0.1-0.6,0.3c-2.4,3.7-5.3,6.5-8.8,8.4c-3.5,1.9-7.4,2.9-11.8,2.9
			c-6.7,0-12-2.1-15.9-6.2c-3.9-4.2-5.8-9.7-5.8-16.6c0-3.9,0.6-10.3,1.8-19.1c1-9.2,2-15.7,3.1-19.5c1.5-6.8,4.7-12.3,9.6-16.5
			c4.9-4.2,10.8-6.3,17.6-6.3c4.3,0,8,1,11,2.9c3,1.9,5.3,4.8,6.8,8.4c0.1,0.2,0.2,0.3,0.4,0.3c0.2,0,0.3-0.2,0.4-0.5l1-8.3
			C191.7,53.6,192.3,53.1,193.2,53.1z M186.6,94.1c1.1-8.2,1.6-14.4,1.6-18.6c0-4.8-1.4-8.6-4.1-11.6c-2.8-3-6.5-4.5-11.1-4.5
			c-5,0-9.4,1.6-13.1,4.9c-3.8,3.2-6.2,7.4-7.3,12.3c-0.9,4.8-1.7,10.5-2.6,17.3c-1.1,8.1-1.6,14.3-1.6,18.5c0,4.8,1.5,8.6,4.4,11.6
			c2.9,3,6.8,4.5,11.7,4.5c4.9,0,9.1-1.6,12.6-4.9c3.6-3.2,5.9-7.3,7-12.3C184.8,106.6,185.7,100.9,186.6,94.1z"/>
		<path class="st0" d="M207.3,133.2l13.5-110.3c0.2-1.1,0.8-1.6,1.8-1.6h5.2c1,0,1.5,0.5,1.5,1.6l-13.6,110.3
			c-0.2,1.1-0.8,1.6-1.8,1.6h-5.2C207.5,134.8,207.1,134.3,207.3,133.2z"/>
		<path class="st1" d="M278,129.8c-4.2-4.2-6.3-9.8-6.3-16.9c-0.1-4.6,0.4-11,1.5-19c1-8.1,2.1-14.4,3.2-19
			c1.7-7,5.2-12.6,10.5-16.9c5.3-4.2,11.6-6.3,18.8-6.3c7.2,0,13,2.1,17.3,6.4c4.3,4.3,6.4,9.9,6.4,16.8c0,4.9-0.5,11.2-1.6,19
			c-1,8.5-2,14.9-3.1,19c-1.7,7-5.2,12.6-10.5,16.9c-5.3,4.2-11.6,6.3-18.8,6.3C288,136.1,282.2,134,278,129.8z M309.5,123.8
			c3.8-3.1,6.3-7.3,7.5-12.5c0.8-3.5,1.6-9.2,2.6-17.3c0.1-1.1,0.4-3.6,0.9-7.6c0.5-4,0.7-7.3,0.7-10.1c0-5.1-1.5-9.2-4.5-12.2
			c-3-3.1-6.9-4.6-11.9-4.6c-5.1,0-9.5,1.6-13.2,4.7c-3.7,3.1-6.2,7.3-7.4,12.5c-0.8,3.8-1.6,9.6-2.6,17.3c-0.1,1.1-0.4,3.6-0.9,7.6
			c-0.5,4-0.7,7.4-0.7,10.1c0,5.1,1.5,9.2,4.4,12.2c2.9,3.1,6.9,4.6,11.8,4.6C301.3,128.5,305.7,126.9,309.5,123.8z"/>
	</g>
	<g>
		
			<ellipse transform="matrix(0.6789 -0.7342 0.7342 0.6789 -25.4923 222.4733)" class="st2" cx="241.6" cy="140.4" rx="20.1" ry="20.1"/>
		
			<ellipse transform="matrix(0.9618 -0.2736 0.2736 0.9618 -29.1906 71.4693)" class="st3" cx="241.6" cy="140.4" rx="17.2" ry="17.2"/>
		
			<ellipse transform="matrix(0.9627 -0.2705 0.2705 0.9627 -28.968 70.6004)" class="st2" cx="241.6" cy="140.4" rx="13.9" ry="13.9"/>
		
			<ellipse transform="matrix(0.2738 -0.9618 0.9618 0.2738 40.4435 334.3331)" class="st3" cx="241.6" cy="140.4" rx="10.6" ry="10.6"/>
		<path class="st2" d="M244.4,145.4c-2.7,1.5-6.2,0.5-7.7-2.2c-1.5-2.7-0.5-6.2,2.2-7.7c2.7-1.5,6.2-0.5,7.7,2.2
			C248.1,140.4,247.1,143.8,244.4,145.4z"/>
		<g>
			<path class="st3" d="M242.4,120.1l-0.8,20.2l6.6-19.1C249.2,118.7,242.5,117.3,242.4,120.1z"/>
			<path class="st4" d="M236.8,124l26.8-100.8l-11.6,103.6C250.9,137.4,233.8,134.9,236.8,124z"/>
			<g>
				<path class="st5" d="M263.6,23.2l-20.7,110.1c-4.1-0.7-8.1-2.2-6.1-9.3L263.6,23.2z"/>
			</g>
			<path class="st2" d="M258.7,50.1c-5.5-5-19.3-20.9-17.7-31.7c1.6-10.9,13.7-15.8,24.3-3L258.7,50.1z"/>
			<path class="st6" d="M258.7,50.1c7-2.6,22.4-13.5,24.9-24.1c2.5-10.7-5.6-17.7-18.3-10.6L258.7,50.1z"/>
		</g>
		
			<linearGradient id="SVGID_1_" gradientUnits="userSpaceOnUse" x1="261.1871" y1="182.3851" x2="299.6916" y2="150.076" gradientTransform="matrix(-0.983 0.1838 0.1838 0.983 505.2135 -56.0894)">
			<stop  offset="0.3818" style="stop-color:#000000;stop-opacity:0"/>
			<stop  offset="1" style="stop-color:#000000;stop-opacity:0.4"/>
		</linearGradient>
		<path class="st7" d="M248.4,149.7l23.4,16.6c-0.2,2.5-0.1,7.4,1.9,9.2c2.3,2.1,5.8,1,5.8-3.7c4-0.7,4.5-3.7,2-5.6
			c-2.1-1.6-6.5-1.5-8.8-1L252,145.4c-1.4-1.3-2.9-1.5-3.9-1l-6.4-3.9l5,5.6C246.3,147.1,246.7,148.6,248.4,149.7z"/>
	</g>
</g>
</svg>
