<?xml version="1.0" encoding="utf-8"?>
<!-- Generator: Adobe Illustrator 24.1.3, SVG Export Plug-In . SVG Version: 6.00 Build 0)  -->
<svg version="1.1" id="Layer_1" xmlns="http://www.w3.org/2000/svg" xmlns:xlink="http://www.w3.org/1999/xlink" x="0px" y="0px"
	 viewBox="0 0 233.4 96.3" style="enable-background:new 0 0 233.4 96.3;" xml:space="preserve">
<style type="text/css">
	.st0{fill:#1AB092;}
	.st1{fill-rule:evenodd;clip-rule:evenodd;fill:#D81B55;}
	.st2{fill-rule:evenodd;clip-rule:evenodd;fill:#FFFFFF;}
	.st3{fill-rule:evenodd;clip-rule:evenodd;fill:#0E8F75;}
	.st4{fill-rule:evenodd;clip-rule:evenodd;fill:#1AB092;}
	.st5{fill-rule:evenodd;clip-rule:evenodd;fill:#B01E50;}
	.st6{fill:#FFFFFF;}
	.st7{fill:#83AF9A;}
	.st8{fill:#E33857;}
	.st9{fill-rule:evenodd;clip-rule:evenodd;fill:#E33857;}
	.st10{fill-rule:evenodd;clip-rule:evenodd;fill:#749685;}
	.st11{fill-rule:evenodd;clip-rule:evenodd;fill:#83AF9A;}
	.st12{fill-rule:evenodd;clip-rule:evenodd;fill:#EF4767;}
	.st13{fill-rule:evenodd;clip-rule:evenodd;fill:url(#SVGID_1_);}
	.st14{fill:#EF4767;}
	.st15{fill:#4B4646;}
</style>
<g>
	<path class="st2" d="M201.1,27.2c-6.8,0-12.7,1.9-17.4,5.1v-2c0.8-1.5,1.4-3.1,1.7-4.9c1.4-8.6-4.5-16.8-13.1-18.3
		c-0.9-0.1-1.7-0.2-2.6-0.2c-5.7,0-10.7,3-13.5,7.6h-14.3c-3.6,0-6.5,2.9-6.5,6.5v11c-4.4-3.2-10.4-4.8-17.8-4.8
		c-7.3,0-15.1,2-20.3,5.2c-0.5,0.3-0.8,0.6-1.2,1c-4.9-3.9-11.4-6.2-18.9-6.2c-6.7,0-12.5,1.8-17.2,5c-0.9-2.5-3.3-4.3-6.1-4.3H39.2
		c-1,0-2,0.2-2.9,0.7c-2.4-0.9-5.2-1.4-8.3-1.4c-14,0-24.5,10.5-24.5,24.5c0,7.1,2.7,13.4,7.3,17.8l-4.3,8.8C5,81.2,6,84.8,8.8,86.6
		c5.7,3.7,13.4,5.7,22.3,5.7c14.9,0,24.9-6.9,28.1-18.8c4.8,3.5,11,5.5,18,5.5c7.8,0,14.5-2.5,19.4-6.6c3.6,4.1,9.3,6.6,16.2,6.6
		c3.1,0,5.7-0.5,7.9-1.3c0.9,0.4,1.8,0.6,2.8,0.6h14.3c0.7,0,1.4-0.1,2-0.4c0.6,0.2,1.3,0.4,2,0.4h41.8v-4.4
		c4.7,3.2,10.7,5.1,17.4,5.1c16.4,0,28.3-10.9,28.3-25.9C229.4,38.1,217.5,27.2,201.1,27.2z"/>
	<g>
		<g>
			<path class="st7" d="M53.8,34.4C53.8,34.4,53.9,34.4,53.8,34.4l0.1,30c0,14.5-8.5,21.4-22.8,21.4c-7.4,0-14.1-1.6-18.7-4.6
				c0,0,0-0.1,0-0.1l5.2-10.4c0,0,0.1,0,0.1,0c3,2.2,7.9,3.7,11.9,3.7c6.4,0,8.9-2.8,8.9-7.8v-0.7c-2.3,2.7-5.8,4-10.3,4
				c-9.5,0-18-7-18-18.1c0-11.1,8.5-18,18-18c5.1,0,8.7,1.5,11,4.8c0,0,0.1,0,0.1,0v-4c0,0,0-0.1,0.1-0.1H53.8z M38.5,51.9
				c0.1-3.7-2.6-6.1-6.2-6.1c-4-0.1-7.3,3.4-6.5,7.3c0.7,3.1,3.6,4.9,7.1,4.6C36,57.4,38.4,55,38.5,51.9z"/>
			<path class="st7" d="M55.3,53.1c0-11.4,9.1-19.4,21.8-19.4c12.7,0,21.8,8,21.8,19.4s-9,19.5-21.8,19.5
				C64.5,72.6,55.3,64.5,55.3,53.1z M83.2,53.1c0-4.9-2.7-7.3-6.1-7.3c-3.4,0-6.1,2.5-6.1,7.3c0,4.9,2.7,7.4,6.1,7.4
				C80.6,60.5,83.2,58,83.2,53.1z"/>
			<path class="st7" d="M137.8,51.7v20.1c0,0,0,0.1-0.1,0.1h-14.3c0,0-0.1,0-0.1-0.1v-4.6c0-0.1-0.1-0.1-0.1,0
				c-1.8,3.6-5.3,5.4-10.5,5.4c-9.2,0-13.9-5.2-13.9-11.6c0-7.3,5.5-11.3,17.1-11.3h6.2c0,0,0.1,0,0.1-0.1c-0.5-2.8-2.7-4.3-7-4.3
				c-3.3,0-7.1,1.1-9.5,2.9c0,0-0.1,0-0.1,0L100.7,38c0,0,0-0.1,0-0.1c4.4-2.7,11-4.2,16.8-4.2C130.4,33.7,137.8,39.3,137.8,51.7z
				 M122.3,59.7v-2.5c0,0,0-0.1-0.1-0.1h-3.8c-3.3,0-4.7,1.1-4.7,3.2c0,1.7,1.4,3,3.7,3C119.6,63.2,121.5,62.2,122.3,59.7
				C122.3,59.7,122.3,59.7,122.3,59.7z"/>
			<path class="st7" d="M141.9,21h15.4c0,0,0.1,0,0.1,0.1v50.7c0,0,0,0.1-0.1,0.1h-15.4c0,0-0.1,0-0.1-0.1L141.9,21
				C141.8,21.1,141.8,21,141.9,21z"/>
		</g>
	</g>
	<g>
		<path class="st8" d="M161.7,34.4h15.5v37.5h-15.5V34.4z"/>
		<path class="st8" d="M179.4,53.1c0-11.4,9.1-19.4,21.8-19.4c12.7,0,21.8,8,21.8,19.4s-9,19.5-21.8,19.5
			C188.5,72.6,179.4,64.5,179.4,53.1z M207.2,53.1c0-4.9-2.7-7.3-6.1-7.3c-3.4,0-6.1,2.5-6.1,7.3c0,4.9,2.7,7.4,6.1,7.4
			C204.6,60.5,207.2,58,207.2,53.1z"/>
	</g>
	<ellipse transform="matrix(0.9883 -0.1525 0.1525 0.9883 -1.5079 26.14)" class="st9" cx="169.7" cy="22.9" rx="9.4" ry="9.4"/>
	<ellipse transform="matrix(0.3841 -0.9233 0.9233 0.3841 83.3553 170.7634)" class="st2" cx="169.7" cy="22.9" rx="8" ry="8"/>
	<ellipse transform="matrix(0.3871 -0.922 0.922 0.3871 82.8811 170.4856)" class="st9" cx="169.7" cy="22.9" rx="6.5" ry="6.5"/>
	<ellipse transform="matrix(0.8127 -0.5827 0.5827 0.8127 18.4358 103.1559)" class="st2" cx="169.7" cy="22.9" rx="4.9" ry="4.9"/>
	<path class="st9" d="M169.2,25.5c-1.4-0.2-2.4-1.6-2.2-3.1c0.2-1.4,1.6-2.4,3.1-2.2c1.4,0.2,2.4,1.6,2.2,3.1
		C172.1,24.8,170.7,25.8,169.2,25.5z"/>
	<g>
		<path class="st2" d="M172.4,19.7l-2.7,3.2l3.5-2.2C173.7,20.4,172.8,19.3,172.4,19.7z"/>
		<path class="st10" d="M171,19.6l17.2-12.8l-15.1,15.2C171.6,23.6,169.1,21,171,19.6z"/>
		<g>
			<path class="st11" d="M188.2,6.9l-17.4,15.1c-0.6-0.6-1-1.4,0.2-2.3L188.2,6.9z"/>
		</g>
		<path class="st12" d="M184,10.6c-0.3-1.5-0.5-5.8,1.1-7.4c1.6-1.6,4.2-0.8,4.3,2.6L184,10.6z"/>
		<path class="st9" d="M184,10.6c1.5,0.5,5.3,0.6,7.1-0.8c1.8-1.4,1.3-3.6-1.6-4L184,10.6z"/>
	</g>
	
		<linearGradient id="SVGID_1_" gradientUnits="userSpaceOnUse" x1="509.2334" y1="22.7842" x2="534.158" y2="1.87" gradientTransform="matrix(-0.983 0.1838 0.1838 0.983 691.9156 -73.3971)">
		<stop  offset="0.3818" style="stop-color:#000000;stop-opacity:0"/>
		<stop  offset="1" style="stop-color:#000000;stop-opacity:0.4"/>
	</linearGradient>
	<path class="st13" d="M173.8,28.7l15.1,10.8c-0.1,1.6,0,4.8,1.3,5.9c1.5,1.3,3.7,0.6,3.7-2.4c2.6-0.5,2.9-2.4,1.3-3.6
		c-1.4-1.1-4.2-1-5.7-0.6l-13.4-12.9c-0.9-0.9-1.8-1-2.5-0.7l-4.2-2.5l3.2,3.6C172.4,27,172.7,28,173.8,28.7z"/>
</g>
</svg>
