<?xml version="1.0" encoding="utf-8"?>
<!-- Generator: Adobe Illustrator 24.1.3, SVG Export Plug-In . SVG Version: 6.00 Build 0)  -->
<svg version="1.1" id="Layer_1" xmlns="http://www.w3.org/2000/svg" xmlns:xlink="http://www.w3.org/1999/xlink" x="0px" y="0px"
	 viewBox="0 0 18 17.7" style="enable-background:new 0 0 18 17.7;" xml:space="preserve">
<style type="text/css">
	.st0{fill-rule:evenodd;clip-rule:evenodd;fill:#E33857;}
	.st1{fill:#1AB092;}
	.st2{fill-rule:evenodd;clip-rule:evenodd;fill:#D81B55;}
	.st3{fill-rule:evenodd;clip-rule:evenodd;fill:#FFFFFF;}
	.st4{fill-rule:evenodd;clip-rule:evenodd;fill:#0E8F75;}
	.st5{fill-rule:evenodd;clip-rule:evenodd;fill:#1AB092;}
	.st6{fill-rule:evenodd;clip-rule:evenodd;fill:#B01E50;}
	.st7{fill-rule:evenodd;clip-rule:evenodd;fill:url(#SVGID_1_);}
	.st8{fill:#FFFFFF;}
	.st9{fill:#83AF9A;}
	.st10{fill:#E33857;}
	.st11{fill-rule:evenodd;clip-rule:evenodd;fill:#749685;}
	.st12{fill-rule:evenodd;clip-rule:evenodd;fill:#83AF9A;}
	.st13{fill-rule:evenodd;clip-rule:evenodd;fill:#EF4767;}
	.st14{fill:#EF4767;}
	.st15{fill:#4B4646;}
	.st16{fill-rule:evenodd;clip-rule:evenodd;fill:#C63454;}
	.st17{fill-rule:evenodd;clip-rule:evenodd;fill:url(#SVGID_2_);}
</style>
<rect x="-0.1" y="-0.1" class="st0" width="18.2" height="18"/>
<g>
	<ellipse transform="matrix(0.3841 -0.9233 0.9233 0.3841 -2.6514 13.7747)" class="st3" cx="9" cy="8.9" rx="8" ry="8"/>
	<ellipse transform="matrix(0.3871 -0.922 0.922 0.3871 -2.667 13.7372)" class="st0" cx="9" cy="8.9" rx="6.5" ry="6.5"/>
	<ellipse transform="matrix(0.8127 -0.5827 0.5827 0.8127 -3.4855 6.9059)" class="st3" cx="9" cy="8.9" rx="4.9" ry="4.9"/>
	<path class="st0" d="M8.6,11.5c-1.4-0.2-2.4-1.6-2.2-3.1C6.6,7,8,6,9.4,6.2c1.4,0.2,2.4,1.6,2.2,3.1C11.4,10.8,10,11.7,8.6,11.5z"
		/>
	<path class="st3" d="M10.4,7.5L8.9,9.2L10.8,8C11.1,7.8,10.6,7.2,10.4,7.5z"/>
	<path class="st11" d="M9.4,8.2l4.8-3.6L10,8.9C9.6,9.3,8.9,8.6,9.4,8.2z"/>
	<g>
		<path class="st12" d="M14.2,4.6L9.4,8.8C9.2,8.7,9.1,8.4,9.4,8.2L14.2,4.6z"/>
	</g>
	<path class="st13" d="M13,5.7c-0.1-0.4-0.1-1.6,0.3-2.1c0.5-0.4,1.2-0.2,1.2,0.7L13,5.7z"/>
	<path class="st16" d="M13,5.7c0.4,0.1,1.5,0.2,2-0.2c0.5-0.4,0.4-1-0.5-1.1L13,5.7z"/>
	
		<linearGradient id="SVGID_1_" gradientUnits="userSpaceOnUse" x1="353.5418" y1="-8.4551" x2="359.1408" y2="-13.1531" gradientTransform="matrix(-0.983 0.1838 0.1838 0.983 363.8647 -42.986)">
		<stop  offset="0.3818" style="stop-color:#000000;stop-opacity:0"/>
		<stop  offset="1" style="stop-color:#000000;stop-opacity:0.4"/>
	</linearGradient>
	<path class="st7" d="M9.9,10.6l3.4,2.4c0,0.4,0,1.1,0.3,1.3c0.3,0.3,0.8,0.1,0.8-0.5c0.6-0.1,0.7-0.5,0.3-0.8
		c-0.3-0.2-0.9-0.2-1.3-0.1l-3-2.9C10.2,9.7,10,9.7,9.9,9.8L8.9,9.2L9.6,10C9.6,10.2,9.7,10.4,9.9,10.6z"/>
</g>
</svg>
